<svg xmlns="http://www.w3.org/2000/svg" version="1.1" xmlns:xlink="http://www.w3.org/1999/xlink" xmlns:svgjs="http://svgjs.dev/svgjs" width="1500" height="261" viewBox="0 0 1500 261"><g transform="matrix(1,0,0,1,-0.9090909090909918,-1.0473805651093073)"><svg viewBox="0 0 396 69" data-background-color="#ffffff" preserveAspectRatio="xMidYMid meet" height="261" width="1500" xmlns="http://www.w3.org/2000/svg" xmlns:xlink="http://www.w3.org/1999/xlink"><g id="tight-bounds" transform="matrix(1,0,0,1,0.2400000000000091,0.27689371261510587)"><svg viewBox="0 0 395.52 68.44621257476976" height="68.44621257476976" width="395.52"><g><svg viewBox="0 0 498.96534921008157 86.34781644285364" height="68.44621257476976" width="395.52"><g transform="matrix(1,0,0,1,103.4453492100816,8.072599077028684)"><svg viewBox="0 0 395.52 70.20261828879627" height="70.20261828879627" width="395.52"><g id="textblocktransform"><svg viewBox="0 0 395.52 70.20261828879627" height="70.20261828879627" width="395.52" id="textblock"><g><svg viewBox="0 0 395.52 70.20261828879627" height="70.20261828879627" width="395.52"><g transform="matrix(1,0,0,1,0,0)"><svg width="395.52" viewBox="2.5 -35.6 203.93 36.2" height="70.20261828879627" data-palette-color="#ea3a36"><path d="M7.45-32.35Q11-35.6 12.85-35.6 14.7-35.6 18.25-32.35 21.8-29.1 22.65-27L22.65-27Q23.2-25.55 23.2-20.45L23.2-20.45 23.2 0 16.3 0 16.3-7.5 9.4-7.5 9.4 0 2.5 0 2.5-20.45Q2.5-25.55 3.05-27L3.05-27Q3.9-29.1 7.45-32.35ZM9.4-20.45L9.4-20.45 9.4-13.5 16.3-13.5 16.3-20.45Q16.3-24.55 15.9-25.48 15.5-26.4 14.53-27.43 13.55-28.45 12.85-28.45 12.15-28.45 11.18-27.43 10.2-26.4 9.8-25.48 9.4-24.55 9.4-20.45ZM43-35L49.9-35 49.9-14.55Q49.9-9.3 49.35-8L49.35-8Q48.5-5.95 44.92-2.68 41.35 0.6 39.55 0.6 37.75 0.6 34.17-2.68 30.6-5.95 29.75-8L29.75-8Q29.2-9.3 29.2-14.55L29.2-14.55 29.2-21.8Q29.2-25.85 28.62-27.5 28.05-29.15 26.2-31.4L26.2-31.4 32.2-35.6Q33.8-34.55 34.95-31.53 36.1-28.5 36.1-24.3L36.1-24.3 36.1-14.55Q36.1-10.45 36.5-9.53 36.9-8.6 37.87-7.58 38.85-6.55 39.55-6.55 40.25-6.55 41.22-7.58 42.2-8.6 42.6-9.53 43-10.45 43-14.55L43-14.55 43-35ZM53-35L72.9-35 72.9-29 66.4-29 66.4 0 59.5 0 59.5-29 53-29 53-35ZM90.47-2.68Q86.89 0.6 85.09 0.6 83.29 0.6 79.72-2.68 76.14-5.95 75.29-8L75.29-8Q74.74-9.3 74.74-14.55L74.74-14.55 74.74-20.45Q74.74-25.7 75.29-27L75.29-27Q76.14-29.05 79.72-32.33 83.29-35.6 85.09-35.6 86.89-35.6 90.47-32.33 94.04-29.05 94.89-27L94.89-27Q95.44-25.7 95.44-20.45L95.44-20.45 95.44-14.55Q95.44-9.3 94.89-8L94.89-8Q94.04-5.95 90.47-2.68ZM83.42-7.58Q84.39-6.55 85.09-6.55 85.79-6.55 86.77-7.58 87.74-8.6 88.14-9.53 88.54-10.45 88.54-14.55L88.54-14.55 88.54-20.45Q88.54-24.55 88.14-25.48 87.74-26.4 86.77-27.43 85.79-28.45 85.09-28.45 84.39-28.45 83.42-27.43 82.44-26.4 82.04-25.48 81.64-24.55 81.64-20.45L81.64-20.45 81.64-14.55Q81.64-10.45 82.04-9.53 82.44-8.6 83.42-7.58ZM118.09-14.1L118.09-14.1Q118.64-13.2 118.64-10.53 118.64-7.85 117.54-6L117.54-6Q116.54-4.55 113.29-1.98 110.04 0.6 108.49 0.6L108.49 0.6Q105.74 0.6 102.19-2.27 98.64-5.15 97.69-8.6L97.69-8.6 103.24-12.4Q104.04-10.05 105.79-8.1 107.54-6.15 108.27-6.15 108.99-6.15 109.82-6.63 110.64-7.1 111.09-7.6L111.09-7.6Q111.74-8.4 111.74-10.1 111.74-11.8 110.94-12.2L110.94-12.2Q109.94-13.05 107.07-14.45 104.19-15.85 101.74-17.48 99.29-19.1 98.62-20.65 97.94-22.2 97.94-24.68 97.94-27.15 99.04-29L99.04-29Q100.04-30.45 103.29-33.02 106.54-35.6 108.09-35.6L108.09-35.6Q110.84-35.6 114.39-32.73 117.94-29.85 118.89-26.4L118.89-26.4 113.34-22.55Q112.54-24.9 110.79-26.88 109.04-28.85 108.32-28.85 107.59-28.85 106.74-28.4 105.89-27.95 105.37-27.28 104.84-26.6 104.84-24.98 104.84-23.35 105.84-22.8L105.84-22.8Q106.64-22.1 109.49-20.6L109.49-20.6Q116.79-16.6 118.09-14.1ZM144.09 0L137.19 0 137.19-16 130.29-16 130.29 0 123.39 0 123.39-21.4Q123.39-25.65 122.81-27.33 122.24-29 120.39-31.4L120.39-31.4 126.39-35.6Q127.99-34.55 129.14-31.73 130.29-28.9 130.29-24.9L130.29-24.9 130.29-22 137.19-22 137.19-35 144.09-35 144.09 0ZM156.29 0L149.39 0 149.39-35 156.29-35 156.29 0ZM169.43-26.45L169.43-26.45 169.48-24.3 169.48 0 162.58 0 162.58-21.4Q162.58-25.6 162.01-27.3 161.43-29 159.58-31.4L159.58-31.4 165.58-35.6Q167.03-34.65 168.28-32.35L168.28-32.35Q172.23-35.6 173.63-35.6 175.03-35.6 178.06-32.98 181.08-30.35 181.83-29.28 182.58-28.2 182.58-26.45L182.58-26.45 182.58 0 175.63 0 175.63-25.45Q175.63-25.9 175.26-26.58 174.88-27.25 174.11-28.1 173.33-28.95 172.66-28.95 171.98-28.95 170.98-28.18 169.98-27.4 169.43-26.45ZM194.48-28.2L194.48-21.3 203.43-21.3 203.43-15.25 194.48-15.25 194.48-6.05 206.43-6.05 206.43 0 187.58 0 187.58-30.8 194.48-35.6 205.63-35.6 205.63-29.5 196.33-29.5 194.48-28.2Z" opacity="1" transform="matrix(1,0,0,1,0,0)" fill="#ea3a36" class="wordmark-text-0" data-fill-palette-color="primary" id="text-0"></path></svg></g></svg></g></svg></g></svg></g><g><svg viewBox="0 0 86.87219589493573 86.34781644285364" height="86.34781644285364" width="86.87219589493573"><g><svg xmlns="http://www.w3.org/2000/svg" xmlns:xlink="http://www.w3.org/1999/xlink" version="1.1" x="0" y="0" viewBox="7.1 7.3 49.699999999999996 49.400000000000006" style="enable-background:new 0 0 64 64;" xml:space="preserve" height="86.34781644285364" width="86.87219589493573" class="icon-icon-0" data-fill-palette-color="accent" id="icon-0"><path d="M13.4 20.4C11.7 18.7 9.5 17.5 7.1 17 9.5 16.5 11.6 15.3 13.4 13.6 15.1 11.9 16.3 9.7 16.8 7.3 17.3 9.7 18.5 11.8 20.2 13.6 21.9 15.3 24.1 16.5 26.5 17 24.1 17.5 22 18.7 20.2 20.4 18.5 22.1 17.3 24.3 16.8 26.7 16.3 24.3 15.2 22.1 13.4 20.4" fill="#ea3a36" data-fill-palette-color="accent"></path><path d="M36.3 8.2C37 10 38.5 11.5 40.3 12.2 38.5 12.9 37 14.4 36.3 16.2 35.6 14.4 34.1 12.9 32.3 12.2 34.1 11.5 35.5 10 36.3 8.2" fill="#ea3a36" data-fill-palette-color="accent"></path><path d="M44.1 54C43.4 51.7 41.6 49.8 39.2 49.2 41.6 48.5 43.5 46.7 44.1 44.4 44.8 46.7 46.6 48.6 49 49.2 46.7 49.8 44.8 51.6 44.1 54" fill="#ea3a36" data-fill-palette-color="accent"></path><path d="M52 27.2C50.6 28.6 49.7 30.2 49.3 32 48.9 30.2 48 28.5 46.6 27.2 45.2 25.8 43.6 24.9 41.8 24.5 43.6 24.1 45.3 23.2 46.6 21.8 48 20.4 48.9 18.8 49.3 17 49.7 18.8 50.6 20.5 52 21.8 53.4 23.2 55 24.1 56.8 24.5 55 25 53.3 25.9 52 27.2" fill="#ea3a36" data-fill-palette-color="accent"></path><path d="M36.8 43.7C34.5 46 32.8 48.6 31.5 51.5 30.8 53.2 30.3 54.9 29.9 56.7 29.6 54.9 29.1 53.2 28.3 51.5 27.1 48.6 25.3 45.9 23 43.7S18.1 39.7 15.2 38.4C13.5 37.7 11.8 37.2 10 36.8 11.8 36.5 13.5 36 15.2 35.2 18.1 34 20.8 32.2 23 29.9S27 25 28.3 22.1C29 20.4 29.5 18.7 29.9 16.9 30.2 18.7 30.7 20.4 31.5 22.1 32.7 25 34.5 27.7 36.8 29.9 39.1 32.2 41.7 33.9 44.6 35.2 46.3 35.9 48 36.4 49.8 36.8 48 37.1 46.3 37.6 44.6 38.4 41.7 39.6 39.1 41.4 36.8 43.7" fill="#ea3a36" data-fill-palette-color="accent"></path></svg></g></svg></g></svg></g><defs></defs></svg><rect width="395.52" height="68.44621257476976" fill="none" stroke="none" visibility="hidden"></rect></g></svg></g></svg>